<svg xmlns="http://www.w3.org/2000/svg" width="976" height="614" viewBox="0 0 976 614">
  <metadata>scene_hash=976x614|n=|s=|f=true|b=false</metadata>
  <g id="root" fill="none">
    <rect id="window_bg" x="0" y="0" width="976" height="614" fill="#0f172a"/>
    <rect id="panel_blur_12" x="8" y="8" width="960" height="598" fill="#020617"/>
    <rect id="panel_blur_11" x="9" y="9" width="958" height="596" fill="#0f172a"/>
    <rect id="panel_blur_10" x="10" y="10" width="956" height="594" fill="#0f172a"/>
    <rect id="panel_blur_9" x="11" y="11" width="954" height="592" fill="#0f172a"/>
    <rect id="panel_blur_8" x="12" y="12" width="952" height="590" fill="#0f172a"/>
    <rect id="panel_blur_7" x="13" y="13" width="950" height="588" fill="#0f172a"/>
    <rect id="panel_blur_6" x="14" y="14" width="948" height="586" fill="#172554"/>
    <rect id="panel_blur_5" x="15" y="15" width="946" height="584" fill="#172554"/>
    <rect id="panel_blur_4" x="16" y="16" width="944" height="582" fill="#172554"/>
    <rect id="panel_blur_3" x="17" y="17" width="942" height="580" fill="#1e293b"/>
    <rect id="panel_blur_2" x="18" y="18" width="940" height="578" fill="#1e293b"/>
    <rect id="panel_blur_1" x="19" y="19" width="938" height="576" fill="#1e293b"/>
    <rect id="panel_grad_0" x="20" y="20" width="936" height="8" fill="#1e293b"/>
    <rect id="panel_grad_8" x="20" y="28" width="936" height="8" fill="#1e293b"/>
    <rect id="panel_grad_16" x="20" y="36" width="936" height="8" fill="#1e293b"/>
    <rect id="panel_grad_24" x="20" y="44" width="936" height="8" fill="#1e293b"/>
    <rect id="panel_grad_32" x="20" y="52" width="936" height="8" fill="#1e293b"/>
    <rect id="panel_grad_40" x="20" y="60" width="936" height="8" fill="#1e293b"/>
    <rect id="panel_grad_48" x="20" y="68" width="936" height="8" fill="#1e293b"/>
    <rect id="panel_grad_56" x="20" y="76" width="936" height="8" fill="#1e293b"/>
    <rect id="panel_grad_64" x="20" y="84" width="936" height="8" fill="#1e293b"/>
    <rect id="panel_grad_72" x="20" y="92" width="936" height="8" fill="#1e293b"/>
    <rect id="panel_grad_80" x="20" y="100" width="936" height="8" fill="#1e293b"/>
    <rect id="panel_grad_88" x="20" y="108" width="936" height="8" fill="#1e293b"/>
    <rect id="panel_grad_96" x="20" y="116" width="936" height="8" fill="#1e293b"/>
    <rect id="panel_grad_104" x="20" y="124" width="936" height="8" fill="#1e293b"/>
    <rect id="panel_grad_112" x="20" y="132" width="936" height="8" fill="#1e293b"/>
    <rect id="panel_grad_120" x="20" y="140" width="936" height="8" fill="#1e293b"/>
    <rect id="panel_grad_128" x="20" y="148" width="936" height="8" fill="#1e293b"/>
    <rect id="panel_grad_136" x="20" y="156" width="936" height="8" fill="#1e293b"/>
    <rect id="panel_grad_144" x="20" y="164" width="936" height="8" fill="#334155"/>
    <rect id="panel_grad_152" x="20" y="172" width="936" height="8" fill="#334155"/>
    <rect id="panel_grad_160" x="20" y="180" width="936" height="8" fill="#334155"/>
    <rect id="panel_grad_168" x="20" y="188" width="936" height="8" fill="#334155"/>
    <rect id="panel_grad_176" x="20" y="196" width="936" height="8" fill="#334155"/>
    <rect id="panel_grad_184" x="20" y="204" width="936" height="8" fill="#334155"/>
    <rect id="panel_grad_192" x="20" y="212" width="936" height="8" fill="#334155"/>
    <rect id="panel_grad_200" x="20" y="220" width="936" height="8" fill="#334155"/>
    <rect id="panel_grad_208" x="20" y="228" width="936" height="8" fill="#334155"/>
    <rect id="panel_grad_216" x="20" y="236" width="936" height="8" fill="#334155"/>
    <rect id="panel_grad_224" x="20" y="244" width="936" height="8" fill="#334155"/>
    <rect id="panel_grad_232" x="20" y="252" width="936" height="8" fill="#334155"/>
    <rect id="panel_grad_240" x="20" y="260" width="936" height="8" fill="#334155"/>
    <rect id="panel_grad_248" x="20" y="268" width="936" height="8" fill="#334155"/>
    <rect id="panel_grad_256" x="20" y="276" width="936" height="8" fill="#334155"/>
    <rect id="panel_grad_264" x="20" y="284" width="936" height="8" fill="#334155"/>
    <rect id="panel_grad_272" x="20" y="292" width="936" height="8" fill="#334155"/>
    <rect id="panel_grad_280" x="20" y="300" width="936" height="8" fill="#334155"/>
    <rect id="panel_grad_288" x="20" y="308" width="936" height="8" fill="#334155"/>
    <rect id="panel_grad_296" x="20" y="316" width="936" height="8" fill="#334155"/>
    <rect id="panel_grad_304" x="20" y="324" width="936" height="8" fill="#334155"/>
    <rect id="panel_grad_312" x="20" y="332" width="936" height="8" fill="#334155"/>
    <rect id="panel_grad_320" x="20" y="340" width="936" height="8" fill="#334155"/>
    <rect id="panel_grad_328" x="20" y="348" width="936" height="8" fill="#334155"/>
    <rect id="panel_grad_336" x="20" y="356" width="936" height="8" fill="#334155"/>
    <rect id="panel_grad_344" x="20" y="364" width="936" height="8" fill="#334155"/>
    <rect id="panel_grad_352" x="20" y="372" width="936" height="8" fill="#334155"/>
    <rect id="panel_grad_360" x="20" y="380" width="936" height="8" fill="#334155"/>
    <rect id="panel_grad_368" x="20" y="388" width="936" height="8" fill="#334155"/>
    <rect id="panel_grad_376" x="20" y="396" width="936" height="8" fill="#334155"/>
    <rect id="panel_grad_384" x="20" y="404" width="936" height="8" fill="#334155"/>
    <rect id="panel_grad_392" x="20" y="412" width="936" height="8" fill="#334155"/>
    <rect id="panel_grad_400" x="20" y="420" width="936" height="8" fill="#334155"/>
    <rect id="panel_grad_408" x="20" y="428" width="936" height="8" fill="#334155"/>
    <rect id="panel_grad_416" x="20" y="436" width="936" height="8" fill="#334155"/>
    <rect id="panel_grad_424" x="20" y="444" width="936" height="8" fill="#334155"/>
    <rect id="panel_grad_432" x="20" y="452" width="936" height="8" fill="#1e293b"/>
    <rect id="panel_grad_440" x="20" y="460" width="936" height="8" fill="#1e293b"/>
    <rect id="panel_grad_448" x="20" y="468" width="936" height="8" fill="#1e293b"/>
    <rect id="panel_grad_456" x="20" y="476" width="936" height="8" fill="#1e293b"/>
    <rect id="panel_grad_464" x="20" y="484" width="936" height="8" fill="#1e293b"/>
    <rect id="panel_grad_472" x="20" y="492" width="936" height="8" fill="#1e293b"/>
    <rect id="panel_grad_480" x="20" y="500" width="936" height="8" fill="#1e293b"/>
    <rect id="panel_grad_488" x="20" y="508" width="936" height="8" fill="#1e293b"/>
    <rect id="panel_grad_496" x="20" y="516" width="936" height="8" fill="#1e293b"/>
    <rect id="panel_grad_504" x="20" y="524" width="936" height="8" fill="#1e293b"/>
    <rect id="panel_grad_512" x="20" y="532" width="936" height="8" fill="#1e293b"/>
    <rect id="panel_grad_520" x="20" y="540" width="936" height="8" fill="#1e293b"/>
    <rect id="panel_grad_528" x="20" y="548" width="936" height="8" fill="#1e293b"/>
    <rect id="panel_grad_536" x="20" y="556" width="936" height="8" fill="#1e293b"/>
    <rect id="panel_grad_544" x="20" y="564" width="936" height="8" fill="#1e293b"/>
    <rect id="panel_grad_552" x="20" y="572" width="936" height="8" fill="#1e293b"/>
    <rect id="panel_grad_560" x="20" y="580" width="936" height="8" fill="#1e293b"/>
    <rect id="panel_grad_568" x="20" y="588" width="936" height="8" fill="#1e293b"/>
    <text id="title" x="72" y="72" font-size="28" font-family="monospace" fill="#ffffff">Enter your name</text>
    <rect id="name_input_bg" x="72" y="112" width="832" height="52" fill="#172554"/>
    <text id="name_input_text" x="88" y="145" font-size="24" font-family="monospace" fill="#ffffff"></text>
    <rect id="button_shadow_7" x="415" y="453" width="154" height="66" fill="#020617"/>
    <rect id="button_shadow_6" x="416" y="454" width="152" height="64" fill="#0f172a"/>
    <rect id="button_shadow_5" x="417" y="455" width="150" height="62" fill="#0f172a"/>
    <rect id="button_shadow_4" x="418" y="456" width="148" height="60" fill="#0f172a"/>
    <rect id="button_shadow_3" x="419" y="457" width="146" height="58" fill="#172554"/>
    <rect id="button_shadow_2" x="420" y="458" width="144" height="56" fill="#172554"/>
    <rect id="button_shadow_1" x="421" y="459" width="142" height="54" fill="#1e293b"/>
    <rect id="submit_button" x="418" y="454" width="140" height="52" fill="#2563eb"/>
    <text id="submit_button_text" x="455" y="492" font-size="22" font-family="monospace" fill="#ffffff">Submit</text>
    <text id="hint1" x="72" y="522" font-size="15" font-family="monospace" fill="#cbd5e1">Type to edit. Enter submits.</text>
    <text id="hint2" x="72" y="544" font-size="15" font-family="monospace" fill="#cbd5e1">Backspace/Delete edits text.</text>
    <text id="status" x="72" y="568" font-size="18" font-family="monospace" fill="#ffffff">Greeting: (press Submit)</text>
  </g>
</svg>
