<svg xmlns="http://www.w3.org/2000/svg" width="640" height="360" viewBox="0 0 640 360">
  <metadata>scene_hash=640x360|n=|s=|f=true|b=false</metadata>
  <g id="root" fill="none">
    <rect id="window_bg" x="0" y="0" width="640" height="360" fill="#0f172a"/>
    <rect id="panel_blur_12" x="8" y="8" width="624" height="344" fill="#020617"/>
    <rect id="panel_blur_11" x="9" y="9" width="622" height="342" fill="#0f172a"/>
    <rect id="panel_blur_10" x="10" y="10" width="620" height="340" fill="#0f172a"/>
    <rect id="panel_blur_9" x="11" y="11" width="618" height="338" fill="#0f172a"/>
    <rect id="panel_blur_8" x="12" y="12" width="616" height="336" fill="#0f172a"/>
    <rect id="panel_blur_7" x="13" y="13" width="614" height="334" fill="#0f172a"/>
    <rect id="panel_blur_6" x="14" y="14" width="612" height="332" fill="#172554"/>
    <rect id="panel_blur_5" x="15" y="15" width="610" height="330" fill="#172554"/>
    <rect id="panel_blur_4" x="16" y="16" width="608" height="328" fill="#172554"/>
    <rect id="panel_blur_3" x="17" y="17" width="606" height="326" fill="#1e293b"/>
    <rect id="panel_blur_2" x="18" y="18" width="604" height="324" fill="#1e293b"/>
    <rect id="panel_blur_1" x="19" y="19" width="602" height="322" fill="#1e293b"/>
    <rect id="panel_grad_0" x="20" y="20" width="600" height="8" fill="#1e293b"/>
    <rect id="panel_grad_8" x="20" y="28" width="600" height="8" fill="#1e293b"/>
    <rect id="panel_grad_16" x="20" y="36" width="600" height="8" fill="#1e293b"/>
    <rect id="panel_grad_24" x="20" y="44" width="600" height="8" fill="#1e293b"/>
    <rect id="panel_grad_32" x="20" y="52" width="600" height="8" fill="#1e293b"/>
    <rect id="panel_grad_40" x="20" y="60" width="600" height="8" fill="#1e293b"/>
    <rect id="panel_grad_48" x="20" y="68" width="600" height="8" fill="#1e293b"/>
    <rect id="panel_grad_56" x="20" y="76" width="600" height="8" fill="#1e293b"/>
    <rect id="panel_grad_64" x="20" y="84" width="600" height="8" fill="#1e293b"/>
    <rect id="panel_grad_72" x="20" y="92" width="600" height="8" fill="#1e293b"/>
    <rect id="panel_grad_80" x="20" y="100" width="600" height="8" fill="#334155"/>
    <rect id="panel_grad_88" x="20" y="108" width="600" height="8" fill="#334155"/>
    <rect id="panel_grad_96" x="20" y="116" width="600" height="8" fill="#334155"/>
    <rect id="panel_grad_104" x="20" y="124" width="600" height="8" fill="#334155"/>
    <rect id="panel_grad_112" x="20" y="132" width="600" height="8" fill="#334155"/>
    <rect id="panel_grad_120" x="20" y="140" width="600" height="8" fill="#334155"/>
    <rect id="panel_grad_128" x="20" y="148" width="600" height="8" fill="#334155"/>
    <rect id="panel_grad_136" x="20" y="156" width="600" height="8" fill="#334155"/>
    <rect id="panel_grad_144" x="20" y="164" width="600" height="8" fill="#334155"/>
    <rect id="panel_grad_152" x="20" y="172" width="600" height="8" fill="#334155"/>
    <rect id="panel_grad_160" x="20" y="180" width="600" height="8" fill="#334155"/>
    <rect id="panel_grad_168" x="20" y="188" width="600" height="8" fill="#334155"/>
    <rect id="panel_grad_176" x="20" y="196" width="600" height="8" fill="#334155"/>
    <rect id="panel_grad_184" x="20" y="204" width="600" height="8" fill="#334155"/>
    <rect id="panel_grad_192" x="20" y="212" width="600" height="8" fill="#334155"/>
    <rect id="panel_grad_200" x="20" y="220" width="600" height="8" fill="#334155"/>
    <rect id="panel_grad_208" x="20" y="228" width="600" height="8" fill="#334155"/>
    <rect id="panel_grad_216" x="20" y="236" width="600" height="8" fill="#334155"/>
    <rect id="panel_grad_224" x="20" y="244" width="600" height="8" fill="#334155"/>
    <rect id="panel_grad_232" x="20" y="252" width="600" height="8" fill="#334155"/>
    <rect id="panel_grad_240" x="20" y="260" width="600" height="8" fill="#1e293b"/>
    <rect id="panel_grad_248" x="20" y="268" width="600" height="8" fill="#1e293b"/>
    <rect id="panel_grad_256" x="20" y="276" width="600" height="8" fill="#1e293b"/>
    <rect id="panel_grad_264" x="20" y="284" width="600" height="8" fill="#1e293b"/>
    <rect id="panel_grad_272" x="20" y="292" width="600" height="8" fill="#1e293b"/>
    <rect id="panel_grad_280" x="20" y="300" width="600" height="8" fill="#1e293b"/>
    <rect id="panel_grad_288" x="20" y="308" width="600" height="8" fill="#1e293b"/>
    <rect id="panel_grad_296" x="20" y="316" width="600" height="8" fill="#1e293b"/>
    <rect id="panel_grad_304" x="20" y="324" width="600" height="8" fill="#1e293b"/>
    <rect id="panel_grad_312" x="20" y="332" width="600" height="8" fill="#1e293b"/>
    <text id="title" x="72" y="72" font-size="28" font-family="Menlo,Monaco,monospace" fill="#ffffff">Enter your name</text>
    <rect id="name_input_bg" x="72" y="112" width="496" height="52" fill="#172554"/>
    <text id="name_input_text" x="88" y="145" font-size="24" font-family="Menlo,Monaco,monospace" fill="#ffffff"></text>
    <rect id="button_shadow_7" x="247" y="199" width="154" height="66" fill="#020617"/>
    <rect id="button_shadow_6" x="248" y="200" width="152" height="64" fill="#0f172a"/>
    <rect id="button_shadow_5" x="249" y="201" width="150" height="62" fill="#0f172a"/>
    <rect id="button_shadow_4" x="250" y="202" width="148" height="60" fill="#0f172a"/>
    <rect id="button_shadow_3" x="251" y="203" width="146" height="58" fill="#172554"/>
    <rect id="button_shadow_2" x="252" y="204" width="144" height="56" fill="#172554"/>
    <rect id="button_shadow_1" x="253" y="205" width="142" height="54" fill="#1e293b"/>
    <rect id="submit_button" x="250" y="200" width="140" height="52" fill="#2563eb"/>
    <text id="submit_button_text" x="287" y="238" font-size="22" font-family="Menlo,Monaco,monospace" fill="#ffffff">Submit</text>
    <text id="hint1" x="72" y="268" font-size="15" font-family="Menlo,Monaco,monospace" fill="#cbd5e1">Type to edit. Enter submits.</text>
    <text id="hint2" x="72" y="290" font-size="15" font-family="Menlo,Monaco,monospace" fill="#cbd5e1">Backspace/Delete edits text.</text>
    <text id="status" x="72" y="314" font-size="18" font-family="Menlo,Monaco,monospace" fill="#ffffff">Greeting: (press Submit)</text>
  </g>
</svg>
